<?xml version="1.0" standalone="no"?>
<!DOCTYPE svg PUBLIC "-//W3C//DTD SVG 20010904//EN"
 "http://www.w3.org/TR/2001/REC-SVG-20010904/DTD/svg10.dtd">
<svg version="1.0" xmlns="http://www.w3.org/2000/svg"
 width="700.000000pt" height="700.000000pt" viewBox="0 0 700.000000 700.000000"
 preserveAspectRatio="xMidYMid meet">
<metadata>
Created by potrace 1.14, written by Peter Selinger 2001-2017
</metadata>
<g transform="translate(0.000000,700.000000) scale(0.100000,-0.100000)"
fill="#000000" stroke="none">
<path d="M0 3500 l0 -3500 3500 0 3500 0 0 3500 0 3500 -3500 0 -3500 0 0
-3500z m4449 1955 l1030 -658 -37 -26 c-134 -97 -568 -385 -575 -383 -5 1
-330 207 -723 457 l-713 454 -673 -457 c-370 -252 -679 -461 -685 -466 -13 -7
-635 379 -642 398 -5 15 1951 1345 1971 1341 10 -2 481 -299 1047 -660z m813
-3027 c253 -160 316 -204 306 -213 -7 -7 -451 -310 -987 -674 -598 -407 -979
-660 -988 -657 -8 4 -478 302 -1044 663 -882 563 -1026 658 -1011 668 9 7 146
100 304 208 l288 195 720 -459 720 -459 683 465 c375 256 684 465 686 465 2 0
147 -91 323 -202z"/>
</g>
</svg>
