<?xml version="1.0" standalone="no"?>
<!DOCTYPE svg PUBLIC "-//W3C//DTD SVG 20010904//EN"
 "http://www.w3.org/TR/2001/REC-SVG-20010904/DTD/svg10.dtd">
<svg version="1.0" xmlns="http://www.w3.org/2000/svg"
 width="700.000000pt" height="700.000000pt" viewBox="0 0 700.000000 700.000000"
 preserveAspectRatio="xMidYMid meet">
<metadata>
Created by potrace 1.14, written by Peter Selinger 2001-2017
</metadata>
<g transform="translate(0.000000,700.000000) scale(0.100000,-0.100000)"
fill="#000000" stroke="none">
<path d="M0 3500 l0 -3500 3500 0 3500 0 0 3500 0 3500 -3500 0 -3500 0 0
-3500z m4437 1964 c565 -361 1031 -659 1035 -663 4 -4 -56 -50 -135 -103 -78
-53 -215 -146 -304 -207 l-161 -110 -721 459 -720 459 -503 -342 c-277 -189
-585 -398 -685 -466 l-181 -124 -322 203 c-176 112 -317 207 -312 212 19 19
1958 1337 1969 1337 6 1 474 -294 1040 -655z m825 -3036 c257 -162 317 -204
306 -213 -7 -7 -451 -311 -987 -675 -846 -575 -976 -661 -995 -652 -20 9
-2044 1298 -2058 1311 -4 3 63 54 150 113 86 58 223 151 304 207 l148 100 720
-459 720 -459 682 465 c376 255 685 464 687 464 2 0 148 -91 323 -202z"/>
</g>
</svg>
